<svg viewBox="0 0 1024 1024" width="14" height="14" style="vertical-align:-2px"><path d="M510.4 65.5h259.7v266.9c0 147.5-116.2 266.9-259.7 266.9-143.4 0-259.7-119.5-259.7-266.9.1-147.5 116.3-266.9 259.7-266.9z" fill="#FF9FCF"/><path d="M698.4 525.2h-13c53-48.4 86.5-117.8 86.5-195.2 0-10.2-.7-20.3-1.8-30.2C613.8 377.5 438.6 444.9 266 437.7c15 33.4 36.7 63.1 63.5 87.5h-5.3c-122.6 0-225.5 88.1-248.8 204.1C340 677.2 597.7 609.2 862.2 585.7c-44.3-37.6-101.5-60.5-163.8-60.5z" fill="#FF83BB"/><path d="M862.2 585.7C597.7 609.2 340 677.2 75.4 729.3c-3.2 16.1-5 32.6-5 49.6 0 99.8 81.7 181.5 181.5 181.5h518.6c99.8 0 181.5-81.7 181.5-181.5.1-77.2-35-146.5-89.8-193.2z" fill="#FF5390"/><path d="M770.1 299.8C755.1 168 643.3 65.5 507.4 65.5c-146.1 0-264.5 118.4-264.5 264.5 0 38.4 8.3 74.8 23.1 107.7 172.6 7.2 347.8-60.2 504.1-137.9z" fill="#FF9FCF"/><path d="M436.4 282.1c0 24.1-19.6 43.7-43.7 43.7S349 306.2 349 282.1s19.6-43.7 43.7-43.7c24.2 0 43.7 19.6 43.7 43.7zM581.3 282.1a43.7 43.7 0 1 0 87.4 0 43.7 43.7 0 1 0-87.4 0z" fill="#FFF"/></svg>