<svg viewBox="0 0 1024 1024" width="18" height="18" style="vertical-align:-3px"><path d="M544.548 628.168a173.722 173.722 0 0 1 0-245.172L703.19 223.892a172.508 172.508 0 0 1 244.465 0 173.722 173.722 0 0 1 0 245.177L788.992 628.168a172.508 172.508 0 0 1-244.444 0zM219.049 952.776a173.716 173.716 0 0 1 0-245.172L377.692 548.5a172.508 172.508 0 0 1 244.465 0 173.716 173.716 0 0 1 0 245.172L463.519 952.765a172.513 172.513 0 0 1-244.47 0z" fill="#F4CA1C"/><path d="M415.642 567.721a36.588 36.588 0 0 1-26-10.808 215.583 215.583 0 0 1-63.529-149.151 203.807 203.807 0 0 1 59.423-148.69L548.71 95.334c80.707-80.972 213.868-79.104 296.827 4.137a215.619 215.619 0 0 1 63.534 149.151 203.776 203.776 0 0 1-59.392 148.68L744.387 499.133a36.838 36.838 0 0 1-51.037-53.13l104.791-101.376a130.13 130.13 0 0 0 37.376-94.781 142.07 142.07 0 0 0-41.984-98.212c-54.302-54.482-140.8-56.32-192.829-4.137L437.519 311.26a130.504 130.504 0 0 0-37.888 95.263 142.085 142.085 0 0 0 41.984 98.212 36.977 36.977 0 0 1 0 52.183 36.588 36.588 0 0 1-25.973 10.803zM246.333 914.068a214.743 214.743 0 0 1-152.207-63.672c-82.852-83.138-84.818-216.484-4.47-297.472l104.96-110.807a36.828 36.828 0 1 1 53.305 50.837l-105.913 111.79c-52.019 52.198-50.176 138.992 4.122 193.474s140.8 56.32 192.824 4.132l163.19-163.748a130.478 130.478 0 0 0 37.888-95.232 142.095 142.095 0 0 0-41.984-98.217 36.833 36.833 0 0 1 51.994-52.183 215.629 215.629 0 0 1 63.534 149.156 203.812 203.812 0 0 1-59.392 148.68L390.953 854.528a203.09 203.09 0 0 1-144.62 59.54z" fill="#595BB3"/></svg>