<svg viewBox="0 0 1136 1024" width="22" height="22" style="vertical-align:-5px"><path d="M255.015 409.797s-113.821-16.345-106.338 80.148c7.483 96.295 106.338 78.769 106.338 78.769s66.363 252.652 332.8 257.772S934.4 566.351 934.4 566.351s106.338 32.492 116.382-76.21-111.459-81.526-111.459-81.526-51.2-252.849-351.508-255.212-332.8 256.394-332.8 256.394z" fill="#FFC0A9"/><path d="M595.102 846.375h-7.68c-145.527-2.757-233.551-76.8-281.6-138.437-37.022-47.458-56.517-94.326-64.985-118.153-19.102.393-49.822-2.56-74.634-21.859-22.252-17.132-34.855-42.93-37.415-76.603-2.56-31.901 6.104-57.305 25.403-75.421 25.206-23.631 62.227-27.57 84.48-27.176 5.907-25.206 20.283-72.468 53.76-119.73 44.504-62.62 131.544-137.058 295.384-135.68 163.053 1.38 255.213 74.832 303.853 136.272 36.627 46.277 54.547 92.16 62.227 116.775 23.237-2.166 62.425-1.378 89.403 22.252 21.268 18.708 30.524 46.671 27.176 83.102-3.545 38.006-17.92 65.772-42.732 82.51-27.373 18.315-60.259 17.724-80.345 14.967-9.65 25.01-31.705 73.255-70.892 121.501-72.074 88.813-169.354 135.68-281.403 135.68zM269.785 545.674l4.726 17.92c.197.59 16.541 61.046 63.803 120.91 62.228 78.967 146.314 119.927 249.895 121.896 248.32 4.53 326.105-243.397 326.893-245.957l5.71-19.298 19.299 5.907c.394 0 39.384 11.422 65.378-6.104 14.376-9.65 22.843-27.57 25.01-52.776 2.166-22.843-2.364-39.384-13.588-49.23-20.086-17.724-59.865-13.588-73.453-10.634l-19.889 4.529-4.135-20.086c-.197-.591-12.997-60.653-60.259-119.73-62.818-78.375-154.387-118.744-271.753-119.729-117.76-.984-205.785 38.991-262.499 118.745-42.338 59.668-50.215 119.532-50.215 120.123l-2.56 20.283-20.086-2.954c-13.194-1.772-51.594-2.56-70.893 15.557-10.043 9.452-14.375 23.63-12.8 43.126 1.773 22.253 8.862 38.006 22.056 48.05 23.827 18.51 60.455 12.603 60.849 12.603l18.51-3.151z" fill="#493B4E"/><path d="M481.07 499.028a35.05 35.05 0 1 0 3.652-70.007 35.05 35.05 0 1 0-3.653 70.007zM704.994 510.606a35.05 35.05 0 1 0 3.653-70.006 35.05 35.05 0 1 0-3.653 70.006zM537.6 597.465s-5.71 50.806 48.837 54.35c54.548 3.545 54.548-45.489 54.548-45.489s37.021-31.508 50.412 4.332c13.39 35.644-40.172 85.859-95.114 86.844S481.28 655.95 486.597 600.025c0-.197 19.495-36.628 51.003-2.56zM634.092 172.308s-118.35 14.966-93.932 70.301c24.418 55.336 81.33 61.44 81.33 61.44s119.925 18.117 33.28-54.547c0 0-23.04 7.68-41.748 2.166s-21.071-49.034 4.923-52.973 98.067 13.588 103.384 49.625 41.354 68.923-61.243 112.05c0 0-144.738 10.042-162.264-112.838 0 0-17.33-22.449 17.132-73.058 34.264-50.806 119.138-2.166 119.138-2.166z" fill="#493B4E"/></svg>