<svg viewBox="0 0 1024 1024" width="18" height="18" style="vertical-align:-3px"><path d="M0 0h1024v1024H0V0z" fill="#202425" opacity=".01"/><path d="M682.667 341.333a136.533 136.533 0 0 1 273.066 0v546.134a68.267 68.267 0 0 1-68.266 68.266h-204.8v-614.4z" fill="#FA4"/><path d="M68.267 819.2A136.533 136.533 0 0 0 204.8 955.733h682.667a68.267 68.267 0 0 1-68.267-68.266V204.8A136.533 136.533 0 0 0 682.667 68.267H204.8A136.533 136.533 0 0 0 68.267 204.8v614.4z" fill="#F74"/><path d="M187.733 273.067a51.2 51.2 0 0 1 51.2-51.2H307.2a51.2 51.2 0 1 1 0 102.4h-68.267a51.2 51.2 0 0 1-51.2-51.2zm0 204.8a51.2 51.2 0 0 1 51.2-51.2h409.6a51.2 51.2 0 0 1 0 102.4h-409.6a51.2 51.2 0 0 1-51.2-51.2zm51.2 153.6a51.2 51.2 0 0 0 0 102.4h204.8a51.2 51.2 0 0 0 0-102.4h-204.8z" fill="#FFF"/></svg>