<svg viewBox="0 0 1024 1024" width="14" height="14" style="vertical-align:-2px"><path d="M0 512a512 512 0 1 0 1024 0A512 512 0 1 0 0 512z" fill="#409EFF"/><path d="M654.222 256c-17.066 0-28.444 11.378-28.444 28.444v56.89c0 17.066 11.378 28.444 28.444 28.444s28.445-11.378 28.445-28.445v-56.889c0-17.066-11.378-28.444-28.445-28.444zm-284.444 0c-17.067 0-28.445 11.378-28.445 28.444v56.89c0 17.066 11.378 28.444 28.445 28.444s28.444-11.378 28.444-28.445v-56.889c0-17.066-11.378-28.444-28.444-28.444z" fill="#FFF"/><path d="M725.333 312.889h-14.222v28.444c0 31.29-25.6 56.89-56.889 56.89s-56.889-25.6-56.889-56.89V312.89H426.667v28.444c0 31.29-25.6 56.89-56.89 56.89s-56.888-25.6-56.888-56.89V312.89h-14.222C275.91 312.889 256 332.8 256 355.556v341.333c0 22.755 19.911 42.667 42.667 42.667h426.666c22.756 0 42.667-19.912 42.667-42.667V355.556c0-22.756-19.911-42.667-42.667-42.667zM426.667 654.222h-56.89c-17.066 0-28.444-11.378-28.444-28.444s11.378-28.445 28.445-28.445h56.889c17.066 0 28.444 11.378 28.444 28.445s-11.378 28.444-28.444 28.444zm227.555 0h-56.889c-17.066 0-28.444-11.378-28.444-28.444s11.378-28.445 28.444-28.445h56.89c17.066 0 28.444 11.378 28.444 28.445s-11.378 28.444-28.445 28.444zm0-113.778h-56.889c-17.066 0-28.444-11.377-28.444-28.444s11.378-28.444 28.444-28.444h56.89c17.066 0 28.444 11.377 28.444 28.444s-11.378 28.444-28.445 28.444z" fill="#FFF"/></svg>