<svg viewBox="0 0 1024 1024" width="14" height="14" style="vertical-align:-2px"><path d="M113.835 291.84v449.195a29.013 29.013 0 0 0 28.842 29.013h252.928v90.453l160.598-90.453H809.13a29.013 29.013 0 0 0 29.013-29.013V291.84a29.013 29.013 0 0 0-29.013-29.013h-665.6a29.013 29.013 0 0 0-29.696 29.013z" fill="#FFDEAD"/><path d="M809.13 262.827h-665.6a29.013 29.013 0 0 0-28.842 29.013v40.107a29.013 29.013 0 0 1 28.843-29.014h665.6a29.013 29.013 0 0 1 29.013 29.014V291.84a29.013 29.013 0 0 0-29.013-29.013z" fill="#FFF3DB"/><path d="M556.203 770.048H809.13a29.013 29.013 0 0 0 29.013-29.013V362.837s-59.733 392.534-724.31 314.71v63.488a29.013 29.013 0 0 0 28.843 29.013h253.099v90.453z" fill="#F2C182"/><path d="M619.008 632.32l101.888-35.157-131.755-76.118 29.867 111.275zm272.896-483.328a61.44 61.44 0 0 0-84.139 22.528l-19.968 34.133 106.667 61.611 19.968-34.133a61.781 61.781 0 0 0-22.528-84.139z" fill="#69BAF9"/><path d="M775.339 198.775l131.669 76.032-186.027 322.22-131.686-76.033z" fill="#F7FBFF"/><path d="M775.168 198.827l-5.29 9.216 59.22 34.133a34.133 34.133 0 0 1 12.46 46.592L701.61 531.115a34.133 34.133 0 0 1-46.763 12.629l-59.05-34.133-6.657 11.434 88.747 51.2 43.008 25.088 186.027-322.56z" fill="#D8E3F0"/><path d="M616.448 622.592l2.56 9.728 101.888-35.157-44.885-25.942-59.563 51.371zm275.456-473.6c-1.024 0-2.219-.853-3.243-1.536a61.61 61.61 0 0 1-1.194 57.344l-19.968 34.133-73.728-42.496-5.12 8.704 106.666 61.611 19.968-34.133a61.781 61.781 0 0 0-23.381-83.627z" fill="#599ED4"/><path d="M265.899 417.621h229.034a17.067 17.067 0 1 0 0-34.133H265.9a17.067 17.067 0 1 0 0 34.133zm0 115.883h229.034a17.067 17.067 0 0 0 0-34.133H265.9a17.067 17.067 0 0 0 0 34.133z" fill="#3D3D63"/><path d="M959.488 354.645a99.84 99.84 0 0 0-23.723-127.488 78.677 78.677 0 0 0-142.848-64.17l-11.605 20.138a17.067 17.067 0 0 0-20.821 7.168l-32.086 55.467H142.677a46.25 46.25 0 0 0-45.909 46.08v449.195a46.08 46.08 0 0 0 45.91 46.08h236.031V860.5a17.067 17.067 0 0 0 8.363 14.848 17.067 17.067 0 0 0 8.704 2.219 17.067 17.067 0 0 0 8.363-2.219l156.672-88.234h248.32a46.08 46.08 0 0 0 46.08-46.08V398.677l66.389-115.37a17.067 17.067 0 0 0-4.267-21.504l1.878-3.414a65.365 65.365 0 0 1 10.41 79.19l-53.077 91.989a56.832 56.832 0 0 0 20.821 77.653 17.067 17.067 0 0 0 24.235-6.314 17.067 17.067 0 0 0-6.997-23.04 23.04 23.04 0 0 1-8.363-31.062zm-138.41 386.39a11.947 11.947 0 0 1-11.947 11.946H556.203a17.067 17.067 0 0 0-8.363 2.219l-134.997 76.117v-61.269a17.067 17.067 0 0 0-17.067-17.067H142.677a11.947 11.947 0 0 1-11.776-11.946V291.84a11.947 11.947 0 0 1 11.776-11.947h565.931L574.464 512a17.067 17.067 0 0 0-1.707 12.97l24.576 90.283H265.9a17.067 17.067 0 1 0 0 34.134h352.938a17.067 17.067 0 0 0 5.803 0l102.4-35.328a17.067 17.067 0 0 0 9.216-7.51l85.333-147.968zm-204.8-184.662l63.829 36.864-49.323 17.067zm206.847-170.666v1.365l-108.373 186.71-102.4-59.051 169.13-292.864 102.4 59.05zm76.459-161.28l-12.117 19.797-76.971-44.373 11.264-19.798a44.544 44.544 0 1 1 77.141 44.544z" fill="#3D3D63"/></svg>