<svg viewBox="0 0 1024 1024" width="15" height="15" style="vertical-align:-3px"><path d="M268.79999999999995 153.6h588.8q89.6 0 89.6 89.6v486.4q0 89.6-89.6 89.6H268.8q-89.6 0-89.6-89.6V243.2q0-89.6 89.6-89.6z" fill="#FF9C55"/><path d="M25.6 193.42a91.02 91.02 0 0 1 91.02-91.02h265.972a91.02 91.02 0 0 1 87.5 65.971l24.551 85.722h412.749a91.02 91.02 0 0 1 91.008 91.046v485.453a91.02 91.02 0 0 1-91.02 91.008H116.607A91.02 91.02 0 0 1 25.6 830.58V193.407z" fill="#FFD977"/><path d="M153.6 665.6h76.8q25.6 0 25.6 25.6t-25.6 25.6h-76.8q-25.6 0-25.6-25.6t25.6-25.6zM153.6 768h179.2q25.6 0 25.6 25.6t-25.6 25.6H153.6q-25.6 0-25.6-25.6t25.6-25.6z" fill="#FFF1C9"/><path d="M179.2 486.4q51.2 0 51.2 51.2t-51.2 51.2q-51.2 0-51.2-51.2t51.2-51.2z" fill="#FFA86A"/></svg>