<svg viewBox="0 0 1024 1024" width="14" height="14" style="vertical-align:-2px"><path d="M510.672 348.793S340.103 48.827 134.243 254.686c-231.88 231.88 376.429 658.75 376.429 658.75s616.107-419.07 376.428-658.75C693.004 60.59 510.672 348.794 510.672 348.794z" fill="#FF713C"/><path d="M510.667 929.675c-3.268 0-6.535-.984-9.327-2.95C484.416 914.852 86.63 633.167 66.12 397.276c-5.17-59.483 13.879-111.32 56.643-154.075 51.044-51.044 104.911-76.93 160.095-76.93 112.525 0 196.88 106.481 228.476 153.195C544.945 274.251 633.74 171.26 745.377 171.26c53.93 0 105.466 24.205 153.21 71.941 45.064 45.063 64.955 99.2 59.134 160.92C935.307 641.686 536.76 915.328 519.803 926.86a16.205 16.205 0 0 1-9.136 2.815zm-227.81-730.92c-46.253 0-92.396 22.683-137.127 67.414-36.15 36.158-51.614 78.12-47.253 128.292 17.575 202.09 352.2 455.12 412.332 499.049 60.434-42.867 395.406-289.147 414.568-492.459 4.933-52.344-11.341-96.465-49.76-134.882-41.431-41.423-85.242-62.425-130.242-62.425-122.041 0-220.006 152.204-220.989 153.743-3.045 4.806-8.533 7.883-14.101 7.535a16.257 16.257 0 0 1-13.737-8.185c-.902-1.587-91.57-158.081-213.69-158.081z" fill="#885F44"/></svg>