<svg viewBox="0 0 1024 1024" width="15" height="15" style="vertical-align:-3px"><path d="M905.011 560.435L562.227 903.22C505.447 960 413.44 960 356.66 903.22L125.082 671.642c-56.781-56.781-56.781-148.788 0-205.568l342.937-342.938a114.893 114.893 0 0 1 84.224-33.587l266.394 7.219c60.774 1.638 109.721 50.38 111.565 111.155l8.294 267.827a114.477 114.477 0 0 1-33.485 84.685z" fill="#8C7BFD"/><path d="M675.226 491.469c-82.176 0-149.044-66.867-149.044-149.043s66.868-149.044 149.044-149.044 149.043 66.868 149.043 149.044-66.867 149.043-149.043 149.043zm0-192.205c-23.808 0-43.213 19.354-43.213 43.213 0 23.808 19.353 43.213 43.213 43.213 23.808 0 43.212-19.354 43.212-43.213s-19.404-43.213-43.212-43.213z" fill="#FFE37B"/></svg>